# xmcd CD database file
#
# Track frame offsets:
#	150
#	19022
#	38997
#	57840
#
# Disc length: 873 seconds
#
# Revision: 0
# Processed by: cddbd v1.5.1PL0 Copyright (c) Steve Scherf et al.
# Submitted via: CDex 1.50
#
DISCID=2a036704
DTITLE=折笠愛（近藤勇子）、松井菜桜子（土方歳絵）、池澤春菜（沖田薫） - 萌えよ剣
DYEAR=2003
DGENRE=Anime
TTITLE0=萌えよ剣
TTITLE1=夜明け
TTITLE2=萌えよ剣　Instrumkental
TTITLE3=萌えよ剣　Game Opening Theme
EXTD=YEAR: 2003mo
EXTT0=
EXTT1=
EXTT2=
EXTT3=
PLAYORDER=
